<?xml version="1.0" encoding="UTF-8"?>
<svg width="24px" height="24px" viewBox="0 0 24 24" version="1.1" xmlns="http://www.w3.org/2000/svg" xmlns:xlink="http://www.w3.org/1999/xlink">
    <!-- Generator: Sketch 57.1 (83088) - https://sketch.com -->
    <title>icon_more</title>
    <desc>Created with Sketch.</desc>
    <g id="Page-1" stroke="none" stroke-width="1" fill="none" fill-rule="evenodd">
        <g id="시안-2차(수정)" transform="translate(-1836.000000, -316.000000)" fill="#8C939E" fill-rule="nonzero">
            <g id="icon_more" transform="translate(1836.000000, 316.000000)">
                <path d="M12,2 C17.5228475,2 22,6.4771525 22,12 C22,17.5228475 17.5228475,22 12,22 C6.4771525,22 2,17.5228475 2,12 C2,6.4771525 6.4771525,2 12,2 Z M12,3.2 C7.1398942,3.2 3.2,7.1398942 3.2,12 C3.2,16.8601058 7.1398942,20.8 12,20.8 C16.8601058,20.8 20.8,16.8601058 20.8,12 C20.8,7.1398942 16.8601058,3.2 12,3.2 Z M10.3333333,6 L14.998,10.669 L15,10.6676025 L16.3305461,12.0027873 L10.3333333,18 L9,16.6666667 L13.669,11.998 L9,7.33333333 L10.3333333,6 Z" id="Combined-Shape"></path>
            </g>
        </g>
    </g>
</svg>